<svg xmlns="http://www.w3.org/2000/svg" xmlns:xlink="http://www.w3.org/1999/xlink"
	width="72"
	height="31"
	viewBox="0 0 72 31">
	<defs>
		<path id="a" d="M0 0h72v31H0z"/>
	</defs>
	<clipPath id="b">
		<use xlink:href="#a" overflow="visible"/>
	</clipPath>
	<path clip-path="url(#b)" d="M68.61 30.983a3.631 3.631 0 0 1-.001 0M2.43 30.896a3.196 3.196 0 0 1 0-.001m65.002-.212c-.06-.027-.12-.05-.18-.082.06.033.12.055.18.083m-62.684-.082c-.058.032-.12.055-.178.082.058-.028.12-.05.178-.082m63.272.292c-.072-.02-.146-.034-.22-.058.074.023.148.04.22.058m-66.208-.22a3.133 3.133 0 0 1-.001 0m2.389.163c-.073.024-.147.04-.22.06.074-.02.147-.036.22-.06m-.573.129c-.078.01-.157.015-.235.02.08-.006.157-.01.235-.02M69.95 30.768c-.125.048-.25.094-.378.126.13-.033.253-.08.378-.126m2.034-2.648a3.241 3.241 0 0 0 0-.001M71.257 29.846a3.3 3.3 0 0 1-.001 0M.017 28.12a3.241 3.241 0 0 1 0-.001M36.295.107a.456.456 0 0 0-.585-.003L2.915 27.444a.452.452 0 0 0-.059.638.45.45 0 0 0 .643.063L34.24 2.515l1.28-1.068.48-.4.48.4 1.28 1.068 30.743 25.63a.451.451 0 0 0 .64-.061.445.445 0 0 0 .105-.332.443.443 0 0 0-.16-.307L36.295.106z"/>
	<path clip-path="url(#b)" fill="#FFF" d="M67.8 30.836c-.125-.04-.247-.097-.368-.153.122.056.243.112.37.153m.991.164c.044 0 .087-.013.132-.015a3.01 3.01 0 0 1-.315-.003c.06.005.12.017.183.017m1.967-.677c-.06.046-.126.08-.19.12.064-.04.13-.074.19-.12m-.57.351c-.078.037-.16.063-.24.095.08-.032.162-.058.24-.095M.013 27.505a3.186 3.186 0 0 1 0 .001M67.252 30.6a3.156 3.156 0 0 1 0 .001M1.43 30.444c-.063-.04-.128-.075-.187-.12.06.045.124.08.186.12M70.85 25.333a3.176 3.176 0 0 1-.001-.001M2.05 30.77c-.08-.03-.16-.06-.238-.095.078.037.16.063.24.095m2.518-.086a3.806 3.806 0 0 1-.37.154c.126-.042.247-.098.37-.154M3.98 30.895a2.937 2.937 0 0 1-.001 0m-1.284.051c-.088-.015-.177-.028-.264-.05.09.022.176.036.265.05m.512.054c.06 0 .122-.01.184-.015a3.31 3.31 0 0 1-.315.002c.044.002.087.014.13.014"/>
</svg>
