<svg width="20" height="20" viewBox="0 0 20 20" fill="none" style="color: white;"
    xmlns="http://www.w3.org/2000/svg"
    xmlns:xlink="http://www.w3.org/1999/xlink">
    <g transform="matrix(1,0,0,1,-15,-15)" fill="currentColor">
        <path d="M24.908 19.7891C22.1008 19.7891 19.7891 22.1008 19.7891 24.908C19.7891 27.7151 22.1008 30.0269 24.908 30.0269C27.7151 30.0269 30.0269 27.7151 30.0269 24.908C30.0269 22.1008 27.7151 19.7891 24.908 19.7891ZM24.908 28.1279C23.0916 28.1279 21.688 26.6418 21.688 24.908C21.688 23.1742 23.1742 21.688 24.908 21.688C26.6418 21.688 28.1279 23.1742 28.1279 24.908C28.1279 26.6418 26.7244 28.1279 24.908 28.1279Z"></path>
        <path d="M30.2741 20.3666C31.0037 20.3666 31.5951 19.7752 31.5951 19.0456C31.5951 18.316 31.0037 17.7246 30.2741 17.7246C29.5446 17.7246 28.9531 18.316 28.9531 19.0456C28.9531 19.7752 29.5446 20.3666 30.2741 20.3666Z"></path>
        <path d="M29.8614 16.4861C31.7603 16.4861 33.329 18.0548 33.329 19.9538V29.8614C33.329 31.7603 31.7603 33.329 29.8614 33.329H19.9538C18.0548 33.329 16.4861 31.7603 16.4861 29.8614V19.9538C16.4861 18.0548 18.0548 16.4861 19.9538 16.4861H29.8614ZM29.8614 15H19.9538C17.2292 15 15 17.2292 15 19.9538V29.8614C15 32.586 17.2292 34.8152 19.9538 34.8152H29.8614C32.586 34.8152 34.8152 32.586 34.8152 29.8614V19.9538C34.8152 17.2292 32.586 15 29.8614 15Z"></path>
    </g>
</svg>